<?xml version="1.0" encoding="utf-8"?>
<svg xmlns="http://www.w3.org/2000/svg" xmlns:xlink="http://www.w3.org/1999/xlink" width="1536" height="1024" viewBox="0 0 1536 1024">
  <path fill="#FEFEFE" d="M1159.23 126.338C1172.5 125.674 1188.93 124.296 1200.18 132.686C1205.77 136.86 1209.23 143.123 1210.08 150.025C1214.2 183.305 1157.11 253.511 1135.77 279.246C1128.04 288.562 1119.71 297.405 1112.21 306.9C1143.88 307.424 1175.72 306.679 1207.42 307.277C1215.97 332.987 1227.64 362.225 1236.97 388.158L1322.85 624.951L1216.48 625.017C1211.52 610.952 1204.98 593.801 1200.9 579.72L1089.76 579.685C1083.91 594.739 1078.14 609.825 1072.45 624.942C1039.14 625.437 1004.13 625.061 970.761 624.905L1043.71 444.869C1059.94 404.734 1076.49 360.787 1095.32 322.066C1081.22 335.709 1067.53 350.08 1053.49 363.896C1035.67 381.46 1017.4 398.566 998.703 415.2C986.856 425.704 974.801 435.97 962.543 445.991C956.31 451.133 949.24 456.659 943.386 462.159C940.834 465.945 939.633 470.754 937.518 474.839C927.047 495.056 910.377 512.257 887.711 517.953C879.782 519.946 872.977 520.682 864.731 521.519C890.85 558.494 920.115 593.143 952.197 625.08C934.353 624.943 916.508 624.916 898.664 624.999C882.208 625.003 862.023 625.94 846.384 621.516C834.169 618.048 822.995 611.625 813.851 602.813C800.96 590.49 789.351 571.146 779.573 555.948C763.475 530.925 746.287 504.282 731.945 478.25C733.826 486.653 735.152 497.604 736.627 506.344C741.876 537.434 750.759 567.224 771.349 591.844C831.689 663.993 951.165 648.635 1035.49 656.735C967.755 664.295 875.371 655.073 818.802 694.675C745.817 745.77 759.385 848.821 745.523 924.191C743.487 911.027 742.826 895.882 741.651 882.487C735.039 807.083 732.576 734.367 662.284 689.86C652.56 698.482 638.686 708.017 628.072 716.051C555.619 770.901 480.888 816.697 395.394 848.874C367.741 859.281 295.486 882.89 294.562 827.441C294.376 816.291 303.835 796.527 309.54 786.284C341.232 729.388 385.775 669.167 434.704 625.752C401.423 625.574 368.653 628.668 341.108 607.003C325.55 594.946 315.555 577.085 313.414 557.516C311.419 539.303 314.634 497.7 315.851 477.96C317.036 455.72 318.664 433.505 320.733 411.329C321.848 400.209 322.706 388.807 325.438 378.076C332.965 348.514 352.433 322.724 381.987 312.608C390.404 309.727 396.782 308.827 405.568 307.837C425.254 306.074 459.844 307.148 480.582 307.175L617.958 307.16C617.162 336.111 615.081 366.406 613.992 395.654L493.683 395.642C474.353 395.624 440.675 394.724 420.644 396.803C413.502 397.545 413.975 419.819 413.311 427.4L600.064 427.478C599.858 451.353 596.904 476.305 596.928 500.945L405.769 500.982C404.924 510.429 401.675 529.652 414.324 531.421C437.438 534.653 464.156 533.319 487.494 533.313L605.983 533.144L602.23 625.331C558.737 624.605 512.914 625.142 469.306 625.27C444.146 645.946 393.52 706.478 385.152 737.738C383.684 743.224 383.494 749.016 386.471 754.049C389.906 759.856 396.428 763.172 402.782 764.72C453.923 777.181 586.861 700.846 631.346 673.442C628.099 672.885 624.71 672.171 621.529 671.392C588.751 663.365 555.024 661.771 521.468 659.905C512.409 659.402 501.252 658.971 492.264 657.483C548.36 654.158 627.447 656.246 674.86 623.859C724.517 589.938 720.007 525.741 727.91 473.855C723.774 465.868 719 457.633 715.974 449.263L783.067 449.336C798.966 449.367 815.508 450.213 831.216 447.49C848.012 444.579 854.997 434.407 854.544 417.72C854.21 405.42 851.177 396.855 836.951 396.162C822.616 395.292 808.332 395.639 794.012 395.64C767.833 395.552 741.653 395.617 715.475 395.834C714.361 421.241 712.476 446.638 710.812 472.219C707.248 527.027 713.538 599.639 648.597 621.293C636.401 625.359 623.864 625.24 611.271 625.474C616.419 519.445 622.235 413.449 628.718 307.493C643.224 306.668 662.78 307.208 677.58 307.196L768.285 307.16L831.699 307.162C868.859 307.145 906.899 304.842 931.742 338.853C953.034 368.003 952.177 407.428 946.952 441.457C964.235 426.834 987.903 401.513 1002.73 384.766C1038.02 345.661 1069.88 303.594 1097.97 259.03C1107.92 242.935 1127.28 211.497 1122.37 191.83C1120.88 185.876 1117.21 181.174 1111.95 178.063C1074.22 155.76 895.206 236.774 849.316 256.432C835.797 262.223 808.838 275.816 796.2 278.761L795.24 278.976C802.694 273.56 815.379 266.735 823.699 262.106C841.125 252.499 858.64 243.054 876.242 233.773C968.599 184.757 1053.5 138.393 1159.23 126.338ZM1115.43 513.297C1125.8 513.227 1136.17 513.215 1146.55 513.26L1178.48 513.268C1171.26 491.248 1164.31 469.142 1157.62 446.954C1155.35 439.498 1149.8 423.045 1148.61 416.115C1141.63 437.133 1134.45 458.086 1127.08 478.97C1123.9 488.05 1117.43 504.81 1115.43 513.297Z"/>
</svg>
